<svg width="24" height="24" viewBox="0 0 24 24" fill="none" xmlns="http://www.w3.org/2000/svg">
<mask id="mask0_411_20659" style="mask-type:alpha" maskUnits="userSpaceOnUse" x="0" y="0" width="24" height="24">
<rect width="24" height="24" fill="#D9D9D9"/>
</mask>
<g mask="url(#mask0_411_20659)">
<path d="M7.61296 9.92594L6.24725 10.6843C6.07617 10.7826 5.89777 10.8101 5.71206 10.7668C5.52634 10.7236 5.39237 10.617 5.31014 10.447L4.10076 8.35438C4.00251 8.17981 3.97611 8.01753 4.02157 7.86754C4.06705 7.71755 4.17264 7.59352 4.33835 7.49546L8.59658 5.00002H9.74325C9.89622 5.00002 10.0176 5.04441 10.1073 5.13319C10.197 5.22195 10.2419 5.34203 10.2419 5.49342V5.72861C10.2419 6.22757 10.4112 6.64638 10.7499 6.98506C11.0886 7.32374 11.5074 7.49308 12.0063 7.49308C12.5053 7.49308 12.9236 7.32374 13.2612 6.98506C13.5989 6.64638 13.7677 6.22757 13.7677 5.72861V5.49342C13.7677 5.34203 13.8121 5.22195 13.9008 5.13319C13.9896 5.04441 14.1097 5.00002 14.2611 5.00002H15.4078L19.6709 7.49546C19.8368 7.59352 19.9402 7.71755 19.9812 7.86754C20.0221 8.01753 19.9963 8.17981 19.9036 8.35438L18.6844 10.4451C18.6017 10.6154 18.4571 10.724 18.2504 10.7708C18.0438 10.8177 17.8637 10.7948 17.71 10.7021L16.3527 9.90816V18.1478C16.3527 18.3471 16.2823 18.5157 16.1415 18.6537C16.0008 18.7917 15.8313 18.8607 15.6332 18.8607H8.32412C8.12598 18.8607 7.95792 18.7917 7.81993 18.6537C7.68195 18.5157 7.61296 18.3471 7.61296 18.1478V9.92594ZM8.63733 8.19131V17.8363H15.3283V8.19131L17.9782 9.66049L18.8489 8.16414L15.2045 6.04113H14.7638C14.6879 6.74566 14.3931 7.33451 13.8795 7.8077C13.3659 8.28086 12.7415 8.51745 12.0063 8.51745C11.2712 8.51745 10.6462 8.28086 10.1316 7.8077C9.61697 7.33451 9.31993 6.74566 9.24049 6.04113H8.8051L5.15543 8.16414L6.02617 9.66049L8.63733 8.19131Z" fill="#FEC104"/>
</g>
</svg>
