<svg width="24" height="24" viewBox="0 0 24 24" fill="none" xmlns="http://www.w3.org/2000/svg">
<mask id="mask0_411_20669" style="mask-type:alpha" maskUnits="userSpaceOnUse" x="0" y="0" width="24" height="24">
<rect width="24" height="24" fill="#D9D9D9"/>
</mask>
<g mask="url(#mask0_411_20669)">
<path d="M8.79999 16.3809C8.2061 16.3809 7.63345 16.2752 7.08205 16.0637C6.53064 15.8522 6.03956 15.5438 5.6088 15.1384C5.04812 14.6061 4.63981 13.9714 4.38389 13.2344C4.12796 12.4974 4 11.7367 4 10.9524C4 10.0791 4.20952 9.36873 4.62857 8.82124C5.04762 8.27375 5.65958 8 6.46446 8C6.61293 8 6.75676 8.01344 6.89595 8.04031C7.03515 8.06716 7.17507 8.10745 7.31572 8.16118L12 9.91503L16.6843 8.16118C16.8249 8.10745 16.9648 8.06716 17.104 8.04031C17.2432 8.01344 17.3871 8 17.5355 8C18.3404 8 18.9524 8.27375 19.3714 8.82124C19.7905 9.36873 20 10.0791 20 10.9524C20 11.7367 19.872 12.4974 19.6161 13.2344C19.3602 13.9714 18.9519 14.6061 18.3912 15.1384C17.9604 15.5438 17.4694 15.8522 16.918 16.0637C16.3666 16.2752 15.7939 16.3809 15.2 16.3809C14.4303 16.3809 13.7595 16.1905 13.1876 15.8095L12.3297 15.2381H11.6703L10.8124 15.8095C10.2405 16.1905 9.56971 16.3809 8.79999 16.3809ZM8.79999 15.4237C9.28872 15.4237 9.74098 15.3139 10.1568 15.0943C10.5726 14.8746 10.9571 14.6035 11.3104 14.2808H12.6896C13.0429 14.6035 13.4274 14.8746 13.8432 15.0943C14.259 15.3139 14.7113 15.4237 15.2 15.4237C15.676 15.4237 16.1396 15.3383 16.5907 15.1675C17.0419 14.9967 17.4403 14.7394 17.7861 14.3956C18.2315 13.945 18.5523 13.4155 18.7485 12.8073C18.9447 12.1991 19.0428 11.5808 19.0428 10.9524C19.0428 10.3835 18.9207 9.90694 18.6765 9.52258C18.4322 9.13821 18.0417 8.94976 17.5048 8.95724C17.4289 8.95724 17.2677 8.98948 17.0212 9.05395L12 10.9304L6.97875 9.05395C6.90158 9.02009 6.82205 8.99551 6.74016 8.98019C6.65827 8.96489 6.57402 8.95724 6.48742 8.95724C5.9505 8.95724 5.56124 9.14756 5.31964 9.52819C5.07804 9.90882 4.95724 10.3835 4.95724 10.9524C4.95724 11.5935 5.05403 12.2168 5.2476 12.8225C5.44118 13.4281 5.76963 13.9588 6.23296 14.4146C6.57875 14.751 6.97272 15.0032 7.41488 15.1714C7.85706 15.3396 8.31876 15.4237 8.79999 15.4237ZM9.73333 13.978C10.1641 13.978 10.5018 13.8842 10.7465 13.6967C10.9912 13.5091 11.116 13.2483 11.1209 12.9143C11.1111 12.3214 10.7101 11.7546 9.91794 11.2139C9.12574 10.6733 8.2896 10.4029 7.40951 10.4029C6.97874 10.4029 6.64102 10.4967 6.39633 10.6842C6.15164 10.8718 6.02686 11.1326 6.02197 11.4667C6.03174 12.0596 6.43272 12.6264 7.2249 13.167C8.0171 13.7077 8.85324 13.978 9.73333 13.978ZM9.663 13.1136C9.09385 13.1136 8.50597 12.9341 7.89936 12.5751C7.29277 12.2161 6.95089 11.845 6.87372 11.4618C6.93657 11.4019 7.01748 11.3517 7.11646 11.3113C7.21545 11.271 7.33397 11.2508 7.47203 11.2508C8.03792 11.2508 8.62628 11.433 9.23712 11.7975C9.84795 12.1621 10.192 12.5359 10.2691 12.9192C10.2063 12.9791 10.1241 13.0265 10.0225 13.0613C9.92088 13.0961 9.80106 13.1136 9.663 13.1136ZM14.2667 13.9971C15.1468 13.9971 15.9829 13.7236 16.7751 13.1765C17.5673 12.6295 17.9683 12.0596 17.978 11.4667C17.9731 11.1375 17.8503 10.8747 17.6095 10.6784C17.3687 10.482 17.0291 10.3839 16.5905 10.3839C15.7153 10.3937 14.8803 10.6708 14.0857 11.2154C13.2911 11.76 12.8889 12.3263 12.8791 12.9143C12.884 13.2435 13.0088 13.5062 13.2535 13.7025C13.4982 13.8989 13.8359 13.9971 14.2667 13.9971ZM14.3292 13.1209C14.1928 13.1193 14.0766 13.1002 13.9807 13.0637C13.8848 13.0273 13.8054 12.9791 13.7426 12.9192C13.825 12.5408 14.1677 12.1721 14.7707 11.8132C15.3737 11.4542 15.9608 11.2682 16.5319 11.2552C16.6651 11.2601 16.7817 11.2807 16.8818 11.3172C16.9819 11.3537 17.0634 11.4019 17.1263 11.4618C17.0439 11.845 16.6999 12.2173 16.0943 12.5788C15.4887 12.9402 14.9003 13.1209 14.3292 13.1209Z" fill="white"/>
</g>
</svg>
