<svg width="24" height="24" viewBox="0 0 24 24" fill="none" xmlns="http://www.w3.org/2000/svg">
<mask id="mask0_411_20649" style="mask-type:alpha" maskUnits="userSpaceOnUse" x="0" y="0" width="24" height="24">
<rect width="24" height="24" fill="#D9D9D9"/>
</mask>
<g mask="url(#mask0_411_20649)">
<path d="M18.7186 9.80943L17.9849 9.07575L18.6568 8.39688C18.7105 8.34312 18.7374 8.28264 18.7374 8.21545C18.7374 8.14826 18.7105 8.08779 18.6568 8.03404L15.966 5.34328C15.9123 5.28952 15.8518 5.26264 15.7846 5.26264C15.7174 5.26264 15.6569 5.28952 15.6032 5.34328L14.9243 6.01517L14.1697 5.26052L14.7179 4.6913C15.0017 4.4075 15.3516 4.2691 15.7677 4.27609C16.1837 4.28307 16.5336 4.42846 16.8174 4.71226L19.2878 7.18265C19.5716 7.46645 19.7135 7.81287 19.7135 8.22191C19.7135 8.63095 19.5716 8.97737 19.2878 9.26116L18.7186 9.80943ZM9.26112 19.2878C8.97732 19.5716 8.6309 19.7135 8.22186 19.7135C7.81282 19.7135 7.4664 19.5716 7.18261 19.2878L4.60258 16.7078C4.35137 16.4531 4.22577 16.1423 4.22577 15.7755C4.22577 15.4087 4.35137 15.0998 4.60258 14.8486L5.26048 14.1907L6.01512 14.9313L5.34431 15.6032C5.29056 15.657 5.26368 15.7174 5.26368 15.7846C5.26368 15.8518 5.29056 15.9123 5.34431 15.9661L8.03399 18.6557C8.08774 18.7095 8.14821 18.7364 8.2154 18.7364C8.2826 18.7364 8.34308 18.7095 8.39684 18.6557L9.06872 17.9849L9.80938 18.7396L9.26112 19.2878ZM17.5028 13.1974L18.8605 11.8396C18.9142 11.7859 18.9411 11.724 18.9411 11.6542C18.9411 11.5843 18.9142 11.5225 18.8605 11.4687L12.5313 5.13955C12.4776 5.0858 12.4158 5.05892 12.3459 5.05892C12.276 5.05892 12.2142 5.0858 12.1604 5.13955L10.8027 6.49729C10.7489 6.55104 10.7221 6.61151 10.7221 6.6787C10.7221 6.74591 10.7489 6.80639 10.8027 6.86014L17.1399 13.1974C17.1937 13.2511 17.2541 13.278 17.3213 13.278C17.3885 13.278 17.449 13.2511 17.5028 13.1974ZM11.8186 18.8815L13.1903 17.5109C13.2441 17.4571 13.271 17.3966 13.271 17.3294C13.271 17.2622 13.2441 17.2018 13.1903 17.148L6.85202 10.8097C6.79827 10.756 6.7378 10.7291 6.67061 10.7291C6.60341 10.7291 6.54294 10.756 6.48917 10.8097L5.11854 12.1814C5.06479 12.2352 5.03791 12.297 5.03791 12.3669C5.03791 12.4368 5.06479 12.4986 5.11854 12.5524L11.4477 18.8815C11.5015 18.9353 11.5633 18.9621 11.6331 18.9621C11.703 18.9621 11.7648 18.9353 11.8186 18.8815ZM11.6149 14.0762L14.0681 11.6219L12.3781 9.93197L9.92386 12.3852L11.6149 14.0762ZM12.5566 19.6232C12.306 19.8744 11.9984 20 11.6336 20C11.2689 20 10.9627 19.8744 10.7151 19.6232L4.37681 13.2849C4.1256 13.038 4 12.7321 4 12.3674C4 12.0026 4.1256 11.6947 4.37681 11.4435L5.73453 10.0691C5.98924 9.81786 6.3 9.69226 6.66679 9.69226C7.03359 9.69226 7.34258 9.81786 7.59377 10.0691L9.16921 11.6445L11.6364 9.17733L10.061 7.6008C9.80976 7.3538 9.68417 7.04659 9.68417 6.67917C9.68417 6.31174 9.80976 6.00243 10.061 5.75124L11.4267 4.37685C11.6815 4.12565 11.9922 4.00005 12.359 4.00005C12.7258 4.00005 13.0348 4.12565 13.286 4.37685L19.6232 10.7141C19.8744 10.9688 20 11.2795 20 11.6463C20 12.0131 19.8744 12.3221 19.6232 12.5733L18.2488 13.9391C17.9982 14.1903 17.6892 14.3159 17.3218 14.3159C16.9544 14.3159 16.6469 14.1903 16.3992 13.9391L14.8227 12.3636L12.3555 14.8308L13.931 16.4063C14.1822 16.661 14.3078 16.9717 14.3078 17.3385C14.3078 17.7053 14.1822 18.0143 13.931 18.2655L12.5566 19.6232Z" fill="white"/>
</g>
</svg>
