<svg width="24" height="24" viewBox="0 0 24 24" fill="none" xmlns="http://www.w3.org/2000/svg">
<mask id="mask0_411_20664" style="mask-type:alpha" maskUnits="userSpaceOnUse" x="0" y="0" width="24" height="24">
<rect width="24" height="24" fill="#D9D9D9"/>
</mask>
<g mask="url(#mask0_411_20664)">
<path d="M9.92106 19V17.831C8.65993 17.3293 7.6078 16.5653 6.76468 15.539C5.92156 14.5126 5.5 13.3329 5.5 12C5.5 11.0317 5.68372 10.1217 6.05116 9.27001C6.4186 8.41834 6.91726 7.67751 7.54714 7.04751C8.17703 6.4175 8.91773 5.91875 9.76926 5.55125C10.6208 5.18375 11.5306 5 12.4988 5C13.4669 5 14.377 5.18375 15.2288 5.55125C16.0807 5.91875 16.8218 6.4175 17.4519 7.04751C18.0821 7.67751 18.581 8.41834 18.9486 9.27001C19.3162 10.1217 19.5 11.0317 19.5 12C19.5 13.3329 19.0784 14.5126 18.2353 15.539C17.3922 16.5653 16.3401 17.3293 15.0789 17.831V19H9.92106ZM10.7523 12.0076H14.2477V6.18648C13.9572 6.098 13.6663 6.03243 13.375 5.98977C13.0837 5.94709 12.7925 5.92575 12.5012 5.92575C12.2099 5.92575 11.9182 5.94709 11.6262 5.98977C11.3341 6.03243 11.0428 6.09765 10.7523 6.18544V12.0076ZM6.42575 12.0076H9.8266V6.54875C8.78021 7.06267 7.95181 7.80897 7.34139 8.78767C6.73097 9.76639 6.42575 10.8397 6.42575 12.0076ZM15.1734 12.0076H18.5742C18.5742 10.8406 18.269 9.76749 17.6586 8.78834C17.0482 7.80919 16.2198 7.06267 15.1734 6.54875V12.0076ZM10.8468 18.0742H14.1532V17.2014C15.1545 16.7885 16.0591 16.2332 16.8668 15.5354C17.6745 14.8376 18.1992 13.9703 18.441 12.9333H6.55896C6.80079 13.9703 7.32555 14.8376 8.13324 15.5354C8.94093 16.2332 9.84546 16.7883 10.8468 17.2005V18.0742Z" fill="#FEC104"/>
</g>
</svg>
