<svg width="24" height="24" viewBox="0 0 24 24" fill="none" xmlns="http://www.w3.org/2000/svg">
<path d="M8.4083 21C7.9133 21 7.48955 20.8237 7.13705 20.4713C6.78455 20.1187 6.6083 19.695 6.6083 19.2C6.6083 18.705 6.78455 18.2812 7.13705 17.9287C7.48955 17.5762 7.9133 17.4 8.4083 17.4C8.9033 17.4 9.32705 17.5762 9.67955 17.9287C10.0321 18.2812 10.2083 18.705 10.2083 19.2C10.2083 19.695 10.0321 20.1187 9.67955 20.4713C9.32705 20.8237 8.9033 21 8.4083 21ZM17.4083 21C16.9133 21 16.4895 20.8237 16.137 20.4713C15.7845 20.1187 15.6083 19.695 15.6083 19.2C15.6083 18.705 15.7845 18.2812 16.137 17.9287C16.4895 17.5762 16.9133 17.4 17.4083 17.4C17.9033 17.4 18.327 17.5762 18.6795 17.9287C19.032 18.2812 19.2083 18.705 19.2083 19.2C19.2083 19.695 19.032 20.1187 18.6795 20.4713C18.327 20.8237 17.9033 21 17.4083 21ZM6.7883 4.8H20.0633C20.4083 4.8 20.6708 4.95375 20.8508 5.26125C21.0308 5.56875 21.0383 5.88 20.8733 6.195L17.6783 11.955C17.5133 12.255 17.292 12.4875 17.0145 12.6525C16.737 12.8175 16.4333 12.9 16.1033 12.9H9.3983L8.4083 14.7H19.2083V16.5H8.4083C7.7333 16.5 7.2233 16.2037 6.8783 15.6112C6.5333 15.0187 6.5183 14.43 6.8333 13.845L8.0483 11.64L4.8083 4.8H3.0083V3H5.9333L6.7883 4.8Z" fill="white"/>
</svg>
