<svg width="24" height="24" viewBox="0 0 24 24" fill="none" xmlns="http://www.w3.org/2000/svg">
<path d="M7.23539 24C6.65734 24 6.16845 23.805 5.76872 23.4149C5.36901 23.0248 5.16915 22.551 5.16915 21.9934C5.16915 21.4358 5.37126 20.9642 5.77547 20.5785C6.17968 20.1929 6.67071 20 7.24859 20C7.82648 20 8.3175 20.1951 8.72164 20.5851C9.12579 20.9752 9.32786 21.449 9.32786 22.0066C9.32786 22.5642 9.12448 23.0358 8.71772 23.4215C8.31096 23.8072 7.81685 24 7.23539 24ZM19.8089 24C19.2309 24 18.742 23.805 18.3423 23.4149C17.9426 23.0248 17.7427 22.551 17.7427 21.9934C17.7427 21.4358 17.9448 20.9642 18.349 20.5785C18.7532 20.1929 19.2443 20 19.8222 20C20.4 20 20.891 20.1951 21.2952 20.5851C21.6993 20.9752 21.9014 21.449 21.9014 22.0066C21.9014 22.5642 21.698 23.0358 21.2913 23.4215C20.8845 23.8072 20.3904 24 19.8089 24ZM5.34373 3.88036L8.96115 11.1148H17.9897C18.0645 11.1148 18.1331 11.0969 18.1955 11.061C18.2579 11.0251 18.3057 10.9753 18.339 10.9115L22.1809 4.21531C22.2308 4.12759 22.2349 4.04982 22.1933 3.98203C22.1517 3.91425 22.081 3.88036 21.9812 3.88036H5.34373ZM4.59534 2.46889H22.5889C23.119 2.46889 23.5199 2.68859 23.7916 3.128C24.0632 3.56739 24.0693 4.01276 23.8099 4.46411L19.8228 11.3908C19.6069 11.7347 19.3299 12.0099 18.9919 12.2165C18.6538 12.423 18.289 12.5263 17.8974 12.5263H8.30502L6.51378 15.7009C6.45557 15.7966 6.45557 15.9003 6.51378 16.012C6.572 16.1236 6.66348 16.1794 6.78822 16.1794H21.9014V17.5909H7.00528C6.18867 17.5909 5.59908 17.3206 5.23651 16.7799C4.87393 16.2392 4.87724 15.6419 5.24647 14.988L7.33459 11.3421L2.42989 1.41144H0V0H3.38287L4.59534 2.46889Z" fill="#222222"/>
</svg>
